<?xml version="1.0" encoding="UTF-8"?>
<!-- Generator: visioncortex VTracer 0.6.12 -->
<svg version="1.1" xmlns="http://www.w3.org/2000/svg" width="36" height="36">
<path d="M0 0 C3.0625 -0.25 3.0625 -0.25 6 0 C6.33 0.33 6.66 0.66 7 1 C7.1875 3.9375 7.1875 3.9375 7 7 C6.34 7.66 5.68 8.32 5 9 C7.5183 12.1227 8.7262 12.9452 12.75 13.75 C13.8225 13.8325 14.895 13.915 16 14 C16.33 15.32 16.66 16.64 17 18 C21.29 18 25.58 18 30 18 C30 18.66 30 19.32 30 20 C26.7 20 23.4 20 20 20 C20 24.62 20 29.24 20 34 C19.67 34 19.34 34 19 34 C19 29.38 19 24.76 19 20 C17.68 20.165 17.68 20.165 11 21 C11.4331 21.3712 11.8663 21.7425 12.3125 22.125 C14.5147 24.5719 15.7577 26.9563 17 30 C16.6875 32.375 16.6875 32.375 16 34 C14.35 34 12.7 34 11 34 C10.8453 33.5153 10.8453 33.5153 10.0625 31.0625 C9.3819 30.0519 8.7012 29.0412 8 28 C5.0061 27.156 2.1009 27.013 -1 27 C-1.33 29.31 -1.66 31.62 -2 34 C-2.66 34 -3.32 34 -4 34 C-3.8144 32.8038 -3.6288 31.6075 -3.4375 30.375 C-2.6901 23.8874 -3.4011 17.4776 -4 11 C-3.67 11.165 -3.67 11.165 -2 12 C-1.375 15.0625 -1.375 15.0625 -1 18 C-0.835 16.7213 -0.67 15.4425 -0.5 14.125 C-0.4072 13.4057 -0.3144 12.6864 -0.2188 11.9453 C0.0897 9.2022 0.0638 8.1382 -1.125 5.5625 C-1.4137 4.7169 -1.7025 3.8712 -2 3 C-1.34 2.01 -0.68 1.02 0 0 Z " fill="#1A1B1B" transform="translate(5,1)"/>
<path d="M0 0 C2.468 1.1517 4.0478 2.0478 6 4 C8.3228 4.4005 10.6574 4.7397 13 5 C13 6.32 13 7.64 13 9 C6.25 9.125 6.25 9.125 4 8 C3.67 9.32 3.34 10.64 3 12 C4.0931 12.0412 5.1863 12.0825 6.3125 12.125 C7.5294 12.4138 8.7462 12.7025 10 13 C12.5066 16.6386 13 18.5533 13 23 C12.01 23 11.02 23 10 23 C9.6494 21.8656 9.2987 20.7312 8.9375 19.5625 C8.1289 17.6211 8.1289 17.6211 7 16 C3.375 15.125 3.375 15.125 0 15 C-0.33 14.67 -0.66 14.34 -1 14 C-1.0989 11.8352 -1.1297 9.6671 -1.125 7.5 C-1.1276 6.3141 -1.1302 5.1281 -1.1328 3.9062 C-1.089 2.9472 -1.0452 1.9881 -1 1 C-0.67 0.67 -0.34 0.34 0 0 Z " fill="#5DCAE4" transform="translate(7,11)"/>
<path d="M0 0 C0.33 0 0.66 0 1 0 C1.33 4.62 1.66 9.24 2 14 C2.825 14.33 2.825 14.33 7 16 C7 16.33 7 16.66 7 17 C4.36 17 1.72 17 -1 17 C-1.33 19.31 -1.66 21.62 -2 24 C-2.66 24 -3.32 24 -4 24 C-3.8144 22.8038 -3.6288 21.6075 -3.4375 20.375 C-2.6901 13.8874 -3.4011 7.4776 -4 1 C-3.67 1.165 -3.67 1.165 -2 2 C-1.375 5.0625 -1.375 5.0625 -1 8 C-0.67 5.36 -0.34 2.72 0 0 Z " fill="#1A1A1A" transform="translate(5,11)"/>
<path d="M0 0 C1.9995 -0.0425 4.0004 -0.0408 6 0 C6.33 0.33 6.66 0.66 7 1 C7.0408 2.9996 7.0425 5.0005 7 7 C5.35 7.66 3.7 8.32 2 9 C0.68 7.68 -0.64 6.36 -2 5 C-1.34 3.35 -0.68 1.7 0 0 Z " fill="#1E1E1D" transform="translate(5,1)"/>
<path d="M0 0 C1.32 0.66 2.64 1.32 4 2 C4 2.66 4 3.32 4 4 C4.6123 4.0864 5.2246 4.1727 5.8555 4.2617 C8 5 8 5 9.3008 6.707 C9.6346 7.4018 9.9685 8.0966 10.3125 8.8125 C10.6593 9.4996 11.006 10.1866 11.3633 10.8945 C12.1031 13.3411 11.8297 14.6179 11 17 C9.35 17 7.7 17 6 17 C5.7112 16.4431 5.7112 16.4431 4.25 13.625 C2.8589 11.1657 2.1754 10.1121 -0.25 8.5625 C-0.8275 8.3769 -1.405 8.1913 -2 8 C-0.02 8 1.96 8 4 8 C7 13.75 7 13.75 7 16 C7.99 16 8.98 16 10 16 C9.01 12.7 8.02 9.4 7 6 C4.69 5.67 2.38 5.34 0 5 C0 3.35 0 1.7 0 0 Z " fill="#1F292B" transform="translate(10,18)"/>
<path d="M0 0 C0.6875 1.625 0.6875 1.625 1 4 C-0.4375 7.25 -0.4375 7.25 -2 10 C-4.97 10 -7.94 10 -11 10 C-11 9.34 -11 8.68 -11 8 C-9.7419 7.9794 -8.4838 7.9588 -7.1875 7.9375 C-4.9805 7.6875 -4.9805 7.6875 -3 7 C-1.3102 4.7102 -0.8104 2.7857 0 0 Z " fill="#1A1A1A" transform="translate(34,8)"/>
<path d="M0 0 C1.65 0.33 3.3 0.66 5 1 C4.67 2.65 4.34 4.3 4 6 C2.35 5.67 0.7 5.34 -1 5 C-0.67 3.35 -0.34 1.7 0 0 Z " fill="#EACB95" transform="translate(6,2)"/>
<path d="M0 0 C0.397 -0.0129 0.397 -0.0129 2.4062 -0.0781 C3.0972 0.0302 3.7881 0.1384 4.5 0.25 C5.16 1.24 5.82 2.23 6.5 3.25 C5.2831 3.0644 4.0663 2.8788 2.8125 2.6875 C-0.5298 2.2601 -3.2197 2.3274 -6.5 3.25 C-6.5 2.59 -6.5 1.93 -6.5 1.25 C-4.159 0.0795 -2.6065 0.0508 0 0 Z " fill="#1A1A1A" transform="translate(25.5,0.75)"/>
<path d="M0 0 C1.98 0 3.96 0 6 0 C6 0.99 6 1.98 6 3 C3.69 3 1.38 3 -1 3 C-0.67 2.01 -0.34 1.02 0 0 Z " fill="#191919" transform="translate(22,5)"/>
<path d="M0 0 C0.66 0 1.32 0 2 0 C2 0.99 2 1.98 2 3 C1.34 3 0.68 3 0 3 C0 2.01 0 1.02 0 0 Z " fill="#181818" transform="translate(24,9)"/>
</svg>
