<?xml version="1.0" encoding="UTF-8"?>
<!-- Generator: visioncortex VTracer 0.6.12 -->
<svg version="1.1" xmlns="http://www.w3.org/2000/svg" width="36" height="36">
<path d="M0 0 C0.5691 -0.0028 0.5691 -0.0028 3.4492 -0.0171 C4.6893 -0.0235 5.9294 -0.03 7.207 -0.0366 C7.8554 -0.027 7.8554 -0.027 11.1367 0.022 C12.4335 0.0026 13.7303 -0.0167 15.0664 -0.0366 C15.6864 -0.0334 15.6864 -0.0334 18.8242 -0.0171 C19.9625 -0.0115 21.1007 -0.0058 22.2734 0 C25.1367 0.647 25.1367 0.647 27.0117 2.9658 C28.4542 6.4036 28.4729 8.9495 28.1367 12.647 C27.8003 13.2103 27.4638 13.7736 27.1172 14.354 C25.6598 17.7624 26.0067 21.138 26.1367 24.772 C26.2305 27.4223 26.2301 29.9904 26.1367 32.647 C25.4767 33.307 24.8167 33.967 24.1367 34.647 C21.5229 34.874 21.5229 34.874 18.2539 34.8423 C17.0873 34.8358 15.9207 34.8294 14.7188 34.8228 C14.1071 34.8144 14.1071 34.8144 11.0117 34.772 C9.7807 34.7629 8.5496 34.7539 7.2812 34.7446 C4.2329 34.721 1.1849 34.6881 -1.8633 34.647 C-4.5508 29.7904 -3.923 25.4099 -3.7383 19.9595 C-3.8601 16.7318 -4.3029 15.3671 -5.8633 12.647 C-6.1994 8.9495 -6.1808 6.4036 -4.7383 2.9658 C-2.8633 0.647 -2.8633 0.647 0 0 Z " fill="#5EC5DE" transform="translate(6.86328125,0.35302734375)"/>
<path d="M0 0 C9.24 0 18.48 0 28 0 C28.33 1.32 28.66 2.64 29 4 C27.02 4 25.04 4 23 4 C23 5.98 23 7.96 23 10 C20.69 10.66 18.38 11.32 16 12 C16.66 12.66 17.32 13.32 18 14 C17.34 14.33 17.34 14.33 14 16 C14 16.66 14 17.32 14 18 C12.02 17.67 10.04 17.34 8 17 C7.9588 18.2169 7.9175 19.4337 7.875 20.6875 C7.5745 23.29 7.3113 24.635 5.5977 26.6445 C3.9375 28 3.9375 28 1 30 C-1.7392 24.5216 -1.5193 19.3801 -0.25 13.5625 C1 11 1 11 2.9375 10 C5 10 5 10 8 12 C9.32 12 10.64 12 12 12 C6.375 10 6.375 10 3 10 C1.68 10 0.36 10 -1 10 C-2.284 5.5059 -1.9053 4.7631 0 0 Z " fill="#806A6C" transform="translate(4,3)"/>
<path d="M0 0 C2.211 0.4279 3.9812 0.9906 6 2 C6.4073 4.3216 6.7444 6.6569 7 9 C11.29 9 15.58 9 20 9 C20.33 10.65 20.66 12.3 21 14 C20.34 14.66 19.68 15.32 19 16 C16.3862 16.2271 16.3862 16.2271 13.1172 16.1953 C11.9506 16.1889 10.784 16.1824 9.582 16.1758 C8.3587 16.159 7.1354 16.1423 5.875 16.125 C4.6439 16.116 3.4129 16.107 2.1445 16.0977 C-0.9038 16.074 -3.9518 16.0411 -7 16 C-7.66 14.68 -8.32 13.36 -9 12 C-7.68 12 -6.36 12 -5 12 C-3.3125 11 -3.3125 11 -2 9 C-1.492 6.3369 -1.2617 3.704 -1 1 C-0.67 0.67 -0.34 0.34 0 0 Z " fill="#50A5B9" transform="translate(12,19)"/>
<path d="M0 0 C0.5691 -0.0028 0.5691 -0.0028 3.4492 -0.0171 C4.6893 -0.0235 5.9294 -0.03 7.207 -0.0366 C7.8554 -0.027 7.8554 -0.027 11.1367 0.022 C12.4335 0.0026 13.7303 -0.0167 15.0664 -0.0366 C15.6864 -0.0334 15.6864 -0.0334 18.8242 -0.0171 C19.9625 -0.0115 21.1007 -0.0058 22.2734 0 C25.1367 0.647 25.1367 0.647 27.0117 2.9658 C28.4542 6.4036 28.4729 8.9495 28.1367 12.647 C27.1367 15.0845 27.1367 15.0845 26.1367 16.647 C25.4767 16.647 24.8167 16.647 24.1367 16.647 C24.1367 15.657 24.1367 14.667 24.1367 13.647 C22.8167 13.317 21.4967 12.987 20.1367 12.647 C20.1367 10.667 20.1367 8.687 20.1367 6.647 C22.1167 6.647 24.0967 6.647 26.1367 6.647 C25.8067 5.327 25.4767 4.007 25.1367 2.647 C23.4867 2.647 21.8367 2.647 20.1367 2.647 C19.8067 3.637 19.4767 4.627 19.1367 5.647 C19.1367 4.657 19.1367 3.667 19.1367 2.647 C13.8567 2.647 8.5767 2.647 3.1367 2.647 C2.8067 3.637 2.4767 4.627 2.1367 5.647 C2.1367 4.657 2.1367 3.667 2.1367 2.647 C0.4867 2.647 -1.1633 2.647 -2.8633 2.647 C-3.1933 5.947 -3.5233 9.247 -3.8633 12.647 C-2.5433 12.317 -1.2233 11.987 0.1367 11.647 C0.4667 9.997 0.7967 8.347 1.1367 6.647 C1.4667 6.647 1.7967 6.647 2.1367 6.647 C2.7967 8.627 3.4567 10.607 4.1367 12.647 C5.1267 12.812 5.1267 12.812 10.1367 13.647 C9.8067 14.307 9.4767 14.967 9.1367 15.647 C5.4541 15.0475 1.7913 14.3994 -1.8633 13.647 C-1.8633 14.637 -1.8633 15.627 -1.8633 16.647 C-2.5233 16.647 -3.1833 16.647 -3.8633 16.647 C-6.2032 12.9909 -6.2377 9.9149 -5.8633 5.647 C-4.3872 2.1291 -3.8027 0.8592 0 0 Z " fill="#363233" transform="translate(6.86328125,0.35302734375)"/>
<path d="M0 0 C0.2888 0.165 0.2888 0.165 1.75 1 C4 2 4 2 7.5625 1.4375 C8.1297 1.3653 8.1297 1.3653 11 1 C12.9375 2.4375 12.9375 2.4375 14 4 C13.34 4.33 13.34 4.33 10 6 C10 6.66 10 7.32 10 8 C9.01 7.835 9.01 7.835 4 7 C3.9588 8.2169 3.9175 9.4337 3.875 10.6875 C3.5745 13.29 3.3113 14.635 1.5977 16.6445 C-0.0625 18 -0.0625 18 -3 20 C-5.7412 14.5175 -5.5596 9.3675 -4.1875 3.5625 C-3.7956 2.7169 -3.4038 1.8712 -3 1 C-2.01 0.67 -1.02 0.34 0 0 Z " fill="#BCEDF9" transform="translate(8,13)"/>
<path d="M0 0 C0.2857 7.4286 0.2857 7.4286 -2 11 C-2.66 11 -3.32 11 -4 11 C-4 10.01 -4 9.02 -4 8 C-5.32 7.67 -6.64 7.34 -8 7 C-8 5.02 -8 3.04 -8 1 C-2.25 0 -2.25 0 0 0 Z " fill="#473537" transform="translate(35,6)"/>
<path d="M0 0 C1.65 0 3.3 0 5 0 C4.67 2.97 4.34 5.94 4 9 C2.35 9.33 0.7 9.66 -1 10 C-1.891 6.8816 -2.1041 5.3123 -1.0625 2.1875 C-0.7119 1.4656 -0.3613 0.7437 0 0 Z " fill="#BDBDBD" transform="translate(4,3)"/>
<path d="M0 0 C3.6923 0.6923 3.6923 0.6923 5 2 C5.1412 4.6706 5.0425 7.3243 5 10 C4.34 10 3.68 10 3 10 C3 8.35 3 6.7 3 5 C2.01 5 1.02 5 0 5 C-0.33 6.32 -0.66 7.64 -1 9 C-1.0977 2.8477 -1.0977 2.8477 -1 1 C-0.67 0.67 -0.34 0.34 0 0 Z " fill="#557880" transform="translate(12,19)"/>
<path d="M0 0 C1.6662 -0.0406 3.3339 -0.0427 5 0 C3.68 0.33 2.36 0.66 1 1 C1.3403 1.2784 1.3403 1.2784 3.0625 2.6875 C3.7019 3.4506 4.3413 4.2138 5 5 C4.75 7.75 4.75 7.75 4 10 C2.35 10 0.7 10 -1 10 C-1.0269 8.5209 -1.0463 7.0417 -1.0625 5.5625 C-1.0741 4.7388 -1.0857 3.9151 -1.0977 3.0664 C-1.0815 2.7254 -1.0815 2.7254 -1 1 C-0.67 0.67 -0.34 0.34 0 0 Z " fill="#677D83" transform="translate(4,19)"/>
<path d="M0 0 C2.64 0 5.28 0 8 0 C8 1.32 8 2.64 8 4 C5.2912 5.3544 2.9907 5.065 0 5 C0 3.35 0 1.7 0 0 Z " fill="#DDDDDD" transform="translate(19,9)"/>
<path d="M0 0 C2.64 0 5.28 0 8 0 C8 1.65 8 3.3 8 5 C5.125 5.125 5.125 5.125 2 5 C1.34 4.34 0.68 3.68 0 3 C0 2.01 0 1.02 0 0 Z " fill="#FB7E8A" transform="translate(9,9)"/>
<path d="M0 0 C1.6662 -0.0406 3.3339 -0.0427 5 0 C3.68 0.33 2.36 0.66 1 1 C1 1.99 1 2.98 1 4 C1.66 4.33 2.32 4.66 3 5 C2.34 5 1.68 5 1 5 C1 5.99 1 6.98 1 8 C2.32 8 3.64 8 5 8 C5 8.66 5 9.32 5 10 C3.3339 10.0427 1.6662 10.0406 0 10 C-0.33 9.67 -0.66 9.34 -1 9 C-1.1328 7.1875 -1.1328 7.1875 -1.125 5 C-1.1276 4.2781 -1.1302 3.5562 -1.1328 2.8125 C-1.089 2.2144 -1.0452 1.6163 -1 1 C-0.67 0.67 -0.34 0.34 0 0 Z " fill="#396D79" transform="translate(26,19)"/>
<path d="M0 0 C2.31 0 4.62 0 7 0 C7 1.32 7 2.64 7 4 C4.69 4 2.38 4 0 4 C0 2.68 0 1.36 0 0 Z " fill="#FBFBFB" transform="translate(19,3)"/>
<path d="M0 0 C2.31 0 4.62 0 7 0 C7 1.32 7 2.64 7 4 C4.69 4 2.38 4 0 4 C0 2.68 0 1.36 0 0 Z " fill="#FBBCC2" transform="translate(10,3)"/>
<path d="M0 0 C1.65 0 3.3 0 5 0 C5 1.32 5 2.64 5 4 C3.02 4 1.04 4 -1 4 C-0.67 2.68 -0.34 1.36 0 0 Z " fill="#EFEFEF" transform="translate(4,3)"/>
<path d="M0 0 C1.98 0 3.96 0 6 0 C5.34 1.32 4.68 2.64 4 4 C2.68 3.67 1.36 3.34 0 3 C0 2.01 0 1.02 0 0 Z " fill="#FC7F8A" transform="translate(28,9)"/>
<path d="M0 0 C1.65 0 3.3 0 5 0 C5.33 1.32 5.66 2.64 6 4 C4.35 4 2.7 4 1 4 C0.67 2.68 0.34 1.36 0 0 Z " fill="#F9BAC0" transform="translate(27,3)"/>
</svg>
